<?xml version="1.0" encoding="utf-8"?>
<!-- Generator: Adobe Illustrator 25.0.0, SVG Export Plug-In . SVG Version: 6.00 Build 0)  -->
<svg version="1.1" id="Capa_1" xmlns="http://www.w3.org/2000/svg" xmlns:xlink="http://www.w3.org/1999/xlink" x="0px" y="0px"
	 viewBox="0 0 50 50" style="enable-background:new 0 0 50 50;" xml:space="preserve">
<style type="text/css">
	.st0{fill:#659998;}
	.st1{fill:#349197;}
	.st2{fill:#A89482;}
	.st3{fill:#A16C76;}
	.st4{fill:none;stroke:#FFFFFF;stroke-miterlimit:10;}
	.st5{fill:#FFFFFF;}
</style>
<g>
	<g>
		<path d="M5.9,24.4C6.1,23.2,7,22.4,8,21.7c1.1-0.8,2.3-1.3,3.6-1.7c0.4-0.1,0.8-0.3,1.2-0.4c0.2-0.1,0.3-0.2,0.1-0.4
			c-0.5-1-1-1.9-1.5-2.9c-0.4-0.9-0.7-1.9-0.7-2.9c0-0.2-0.1-0.2-0.2-0.2C9.9,12.8,9.4,12.5,9,12c-0.6-0.7-0.8-1.5-0.6-2.4
			c0.4-1.5,1.6-2.5,3-2.4c1.3,0.1,2.2,0.7,2.7,1.9c0.1,0.1,0.1,0.3,0.2,0.4c0.1,0.3,0.3,0.4,0.6,0.4c0.7,0.1,1.5,0.2,2.2,0.3
			c0.4,0.1,0.7,0.2,1.1,0.3c0.4,0.1,0.4,0.1,0.5-0.3c0.6-1.9,1.3-3.8,2.6-5.3c0.6-0.7,1.2-1.3,2-1.7c1.6-0.7,3.1-0.5,4.5,0.5
			c0.9,0.6,1.5,1.4,2.1,2.3c0.8,1.2,1.3,2.6,1.8,4c0.1,0.2,0.1,0.4,0.1,0.6c0,0.1,0.1,0.2,0.2,0.1c0.1,0,0.3-0.1,0.4-0.1
			c1.2-0.4,2.4-0.7,3.7-0.7c0.4,0,0.5,0,0.6-0.4C37,7.9,38.5,7.1,40,7.2c1.3,0.1,2.4,1.2,2.7,2.6c0.2,1.2-0.4,2.3-1.5,2.9
			c-0.4,0.2-0.8,0.4-1.3,0.3c-0.2,0-0.4,0.1-0.4,0.3c-0.1,1.3-0.6,2.6-1.2,3.8c-0.3,0.7-0.7,1.4-1.1,2.2c0.1,0,0.2,0.1,0.3,0.2
			c0.3,0.1,0.6,0.2,1,0.4c1.7,0.5,3.2,1.3,4.5,2.4c0.4,0.3,0.8,0.8,1.1,1.2c0.5,0.8,0.5,1.7,0.1,2.6c-0.3,0.5-0.7,1-1.1,1.4
			c-1.3,1.1-2.8,1.9-4.4,2.4c-0.3,0.1-0.5,0.2-0.8,0.3c0.2,0.6,0.5,1.1,0.7,1.6c0.4,1,0.7,2,0.9,3.1c0,0.1,0,0.2,0.1,0.3
			c0.1,0.4,0.1,0.4,0.5,0.4c1.8,0.1,2.9,0.9,3,2.7c0.2,2.2-1.8,3.8-3.9,3.1c-0.6-0.2-1.1-0.6-1.4-1.1c-0.2-0.2-0.3-0.3-0.6-0.3
			c-1.5,0-3,0-4.5-0.4c-0.2-0.1-0.4-0.1-0.5-0.1c-0.2,0-0.3,0-0.4,0.3c-0.2,1.1-0.7,2-1.2,3c-0.5,1.1-1.2,2.1-2.1,3
			c-0.8,0.8-1.7,1.3-2.8,1.4c-1.2,0.2-2.3-0.2-3.3-1c-0.4-0.3-0.7-0.6-1-1c-1.1-1.4-2.1-2.8-2.7-4.5c-0.1-0.2-0.1-0.4-0.2-0.6
			c0-0.2-0.1-0.3-0.3-0.2c-0.3,0.1-0.5,0.1-0.8,0.1C16.7,39.9,16,40,15.2,40c-0.5,0-0.9,0-1.4-0.1c-0.2,0-0.4,0-0.5,0.2
			c-0.8,1.1-1.8,1.6-3.2,1.4c-2.1-0.3-2.9-2.5-2.6-3.9c0.2-1,1.6-2.1,2.6-2.1c0.7,0,0.7,0.1,0.8-0.7c0.2-1.5,0.7-2.9,1.3-4.3
			c0.1-0.1,0.1-0.2,0.2-0.4c-0.2-0.1-0.5-0.2-0.7-0.3c-0.8-0.4-1.6-0.7-2.4-1.1c-0.6-0.3-1.1-0.7-1.6-1c-0.9-0.7-1.5-1.5-1.8-2.6
			c0,0,0,0,0,0C5.9,24.9,5.9,24.6,5.9,24.4z M17.4,25.3c0,0.8,0.1,1.6,0.3,2.4c1.2,3.6,5.8,6.8,10.4,5c2.5-1,4.1-2.8,4.9-5.4
			c1-3.2-0.3-6.6-3.1-8.3c-2.2-1.3-4.6-1.7-7-1c-1.3,0.3-2.4,0.8-3.4,1.8C18.1,21.3,17.4,23.2,17.4,25.3z M25,3.7
			c-0.8,0-1.5,0.4-2.2,0.9c-1,0.8-1.7,1.9-2.2,3.1c-0.4,1-0.8,2.1-1.1,3.1c0,0.1,0,0.2,0.1,0.2c0.3,0.2,0.6,0.4,0.9,0.5
			c1.1,0.4,2.1,0.9,3,1.4c0.5,0.3,1,0.7,1.6,1c0.2,0.1,0.3,0.1,0.5,0c0.4-0.3,0.9-0.6,1.3-0.8c1.2-0.7,2.3-1.4,3.7-1.7
			c0.1,0,0.3-0.1,0.4-0.2c0.1-0.1,0.2-0.1,0.1-0.3c-0.1-0.2-0.2-0.5-0.3-0.8c-0.4-1.3-1-2.6-1.7-3.8c-0.5-0.8-1.1-1.5-1.8-2
			C26.6,4,25.9,3.7,25,3.7z M25.3,46.2c0.9,0,1.7-0.3,2.4-1c0.5-0.5,0.8-1,1.2-1.5c0.9-1.3,1.4-2.8,2.1-4.2c0-0.1,0-0.1,0.1-0.2
			c0-0.1,0-0.2-0.2-0.2c-0.2,0-0.4-0.1-0.6-0.2c-0.7-0.3-1.4-0.6-2.1-0.9c-1-0.5-1.9-1-2.8-1.5c-0.1-0.1-0.2-0.1-0.3,0
			c-0.2,0.2-0.4,0.3-0.6,0.4c-1.5,0.8-3,1.6-4.6,2.1c-0.6,0.2-0.5,0.2-0.3,0.7c0.5,1,0.9,2,1.4,3c0.5,1,1.1,1.9,2.1,2.6
			C23.7,45.9,24.4,46.2,25.3,46.2z M13.6,20.2c-1,0.4-1.9,0.7-2.8,1.1C9.9,21.6,9,22,8.2,22.6c-0.5,0.4-0.9,0.8-1.2,1.3
			c-0.4,0.8-0.3,1.5,0.2,2.2c0.3,0.3,0.6,0.7,1,0.9c1.3,1,2.8,1.7,4.4,2.3c0.2,0.1,0.3,0,0.3-0.1c0.5-1,0.9-1.9,1.5-2.9
			c0.5-0.8,1-1.6,1.5-2.3C15.1,22.7,14.4,21.4,13.6,20.2z M43.5,25c0-0.1,0-0.2,0-0.4c-0.2-0.9-0.8-1.6-1.6-2.1
			c-0.5-0.3-0.9-0.5-1.4-0.8c-0.8-0.3-1.5-0.8-2.2-1.2c-0.3-0.1-0.5-0.3-0.8-0.4c-0.6-0.2-1,0-1.3,0.5c-0.1,0.2-0.2,0.3-0.2,0.5
			c-0.3,0.8-0.6,1.6-1.1,2.3c-0.1,0.1-0.1,0.3,0,0.4c0.3,0.5,0.6,1.1,0.8,1.6c0.6,1.2,1.2,2.4,1.8,3.6c0.1,0.2,0.2,0.3,0.4,0.2
			c0.5-0.2,1-0.4,1.5-0.7c0.6-0.3,1.3-0.6,1.9-0.9c0.7-0.4,1.4-0.9,1.9-1.5C43.4,25.8,43.5,25.4,43.5,25z M36.9,30.6
			c-0.6,0.2-1.2,0.4-1.7,0.6c-0.6,0.2-1.2,0.4-1.8,0.5c-0.3,0.1-0.4,0.2-0.4,0.5c0,0.1,0,0.1,0,0.2c0.1,1.1-0.1,2.3-0.3,3.4
			c-0.1,0.8-0.4,1.6-0.6,2.4c-0.1,0.3-0.1,0.3,0.2,0.4c1.5,0.5,3.1,0.5,4.6,0.6c0.2,0,0.3-0.1,0.2-0.3c-0.1-0.5,0-0.9,0.1-1.3
			c0.2-0.6,0.6-1,1.1-1.4c0.2-0.2,0.3-0.3,0.2-0.7c-0.2-0.5-0.2-1.1-0.4-1.6c-0.3-0.9-0.7-1.9-1-2.8C37.1,30.9,37,30.7,36.9,30.6z
			 M14.8,39.1C14.8,39.1,14.8,39.2,14.8,39.1c1.1,0,2.2-0.2,3.3-0.3c0.2,0,0.3-0.1,0.2-0.3c-0.1-0.3-0.1-0.5-0.2-0.8
			c-0.4-1.1-0.6-2.3-0.7-3.5c-0.1-0.7-0.1-1.4-0.1-2.1c0-0.2-0.1-0.3-0.3-0.3c-0.1,0-0.3-0.1-0.4-0.1c-1.1-0.4-2.1-0.8-3.2-1.1
			c-0.2-0.1-0.3,0-0.3,0.1c-0.5,1.2-1,2.4-1.2,3.8c-0.1,0.4-0.1,0.7-0.3,1c-0.1,0.2,0,0.2,0.1,0.3c0.3,0.2,0.5,0.3,0.8,0.5
			c0.3,0.2,0.6,0.4,0.7,0.7c0.2,0.6,0.4,1.2,0.3,1.8c0,0.2,0.1,0.2,0.2,0.2C14.1,39.1,14.5,39.1,14.8,39.1z M36.6,10.7
			c-0.2,0-0.4,0.1-0.6,0.1c-1,0-1.9,0.2-2.8,0.4c-0.3,0.1-0.6,0.2-0.9,0.4c-0.1,0-0.1,0.1-0.1,0.2c0.1,0.4,0.1,0.8,0.2,1.2
			c0.3,1.5,0.6,3,0.6,4.6c0,0.1,0,0.3,0,0.4c0.1,0.4,0.1,0.4,0.5,0.5c0.8,0.2,1.6,0.4,2.4,0.6c0.4,0.1,0.5,0.1,0.7-0.3
			c0.2-0.3,0.3-0.6,0.5-0.9c0.2-0.4,0.5-0.9,0.7-1.3c0.3-1,0.6-2,0.9-3.1c0.1-0.4,0.1-0.4-0.3-0.6c0,0-0.1,0-0.1-0.1
			c-0.5-0.3-1-0.7-1.3-1.3C36.9,11.2,36.8,11,36.6,10.7z M14.8,10.6C14.8,10.6,14.7,10.6,14.8,10.6c-0.1,0.1-0.2,0.1-0.2,0.1
			c-0.2,0-0.4,0.1-0.4,0.3c0,0.1,0,0.3-0.1,0.4c-0.4,0.9-1.1,1.4-2.1,1.5c-0.4,0.1-0.4,0.1-0.3,0.5c0.5,2,1.3,3.7,2.2,5.5
			c0.1,0.2,0.2,0.3,0.5,0.2c0.9-0.2,1.7-0.5,2.6-0.7c0.4-0.1,0.4-0.1,0.4-0.6c0-1.6,0.3-3.1,0.6-4.6c0.1-0.5,0.2-1,0.3-1.4
			c0.1-0.2,0-0.3-0.2-0.4c-0.3-0.1-0.6-0.2-1-0.3C16.3,11,15.5,10.8,14.8,10.6z M24.7,14.8c-0.2-0.3-0.5-0.5-0.8-0.6
			c-1.4-0.7-2.9-1.5-4.3-2.2c-0.1,0-0.1-0.1-0.2-0.1c-0.3-0.1-0.3-0.1-0.4,0.2c0,0.3-0.1,0.6-0.1,1c-0.3,1.5-0.5,3.1-0.6,4.6
			c0,0.3,0,0.3,0.3,0.3c0.3,0,0.6-0.1,0.9-0.2c0.2,0,0.4-0.1,0.4-0.4c0-0.1,0.1-0.1,0.1-0.2c0.3-0.3,0.6-0.5,1.1-0.5
			c0.3,0,0.6,0,0.9,0c0.1,0,0.3-0.1,0.4-0.1c0.3-0.3,0.7-0.6,1-0.9C23.7,15.4,24.1,15,24.7,14.8z M26.1,14.6
			c0.2,0.2,0.4,0.4,0.6,0.5c0.7,0.4,1.4,0.8,1.9,1.5c0.1,0.2,0.3,0.2,0.6,0.2c0.4-0.1,1.2,0.3,1.3,0.7c0.1,0.3,0.3,0.4,0.5,0.4
			c0.1,0,0.2,0,0.3,0.1c0.8,0.2,0.8,0.2,0.8-0.7c-0.1-1.6-0.4-3.2-0.7-4.7c0-0.1-0.1-0.2-0.1-0.4C31.3,12,31.2,12,31,12
			c-0.4,0.2-0.8,0.3-1.3,0.5c-1.1,0.5-2.1,1.1-3.2,1.7C26.5,14.3,26.3,14.5,26.1,14.6z M19.2,38.4c1.1-0.5,2.1-0.9,3.1-1.4
			c0.6-0.3,1.2-0.7,1.8-1.1c0.1,0,0.1-0.1,0.2-0.2c-0.1-0.1-0.1-0.1-0.1-0.1c-0.5-0.4-1.1-0.9-1.6-1.3c-0.1-0.1-0.3-0.2-0.4-0.3
			c-0.2-0.1-0.3-0.2-0.5,0c0,0-0.1,0-0.2,0.1c-0.8,0.2-1.6-0.3-1.7-1.2c0-0.2-0.1-0.3-0.3-0.4c-0.4-0.1-0.8-0.2-1.3-0.3
			c0,0.2-0.1,0.4,0,0.6c0.2,1.7,0.4,3.4,0.8,5C19,38.1,19.1,38.3,19.2,38.4z M26.1,35.8c0.8,0.6,1.7,0.9,2.5,1.3
			c0.8,0.4,1.7,0.8,2.6,1.1c0.4-0.4,1-4.1,0.9-5.8c0,0-0.1,0-0.1,0c-0.3,0.3-0.7,0.3-1,0.3c-0.2,0-0.3,0.1-0.3,0.3
			c0,0.7-0.5,0.9-1.1,1.1c-0.3,0.1-0.7,0.2-0.9,0c-0.3-0.2-0.4-0.1-0.6,0.1c-0.1,0.1-0.2,0.2-0.3,0.3c-0.4,0.3-0.8,0.6-1.2,1
			C26.4,35.6,26.3,35.7,26.1,35.8z M40,40.6c1.5,0.1,2.3-1,2.3-2c0-1.3-1-2.3-2.2-2.3c-1.1,0-2.1,1-2.1,2
			C37.9,39.7,38.8,40.6,40,40.6z M37.4,10.3c0,0.5,0.2,1,0.6,1.3c0.4,0.3,0.8,0.5,1.2,0.6c0.1,0,0.2,0,0.2-0.1
			c0.3-0.2,0.5-0.4,0.8-0.5c0.7-0.4,1.1-1,1.1-1.9c0-0.3,0-0.5-0.2-0.8c-0.1-0.1-0.2-0.2-0.2-0.4c0-0.2-0.1-0.3-0.3-0.4
			C40.4,8,39.9,8,39.4,8C38.2,8.1,37.5,9,37.4,10.3z M10.4,40.1c1.1,0,1.7-0.5,1.8-1.5c0.2-1-0.6-2.1-1.6-2.2
			c-1-0.2-1.8,0.2-2.2,1.2c-0.2,0.6-0.3,1.1-0.1,1.7c0,0.1,0.1,0.2,0.2,0.3c0.1,0.1,0.3,0.1,0.4,0.2C9.5,40,10,40.2,10.4,40.1z
			 M12.5,8.4C12,8.2,11.5,8,11,8.1c-0.6,0.1-1,0.4-1.3,0.9C9,10,9.2,11.2,10,11.9c0.4,0.3,0.9,0.4,1.3,0.1c0.3-0.2,0.6-0.4,0.9-0.7
			c0.4-0.3,0.6-0.7,0.5-1.2c0-0.3-0.1-0.5-0.2-0.7C12.5,9.1,12.3,8.8,12.5,8.4z M13.7,29.8c1.2,0.5,2.4,0.9,3.5,1.2
			c0-0.4,0-0.8,0.1-1.1c0-0.3,0-0.5-0.2-0.6c-0.1,0-0.2-0.2-0.2-0.2c-0.2-0.4-0.4-0.8-0.5-1.3c-0.2-0.5-0.2-1.1-0.1-1.6
			c0-0.2,0-0.5-0.2-0.6C15.1,26.8,14.4,28.3,13.7,29.8z M34.6,25.6C34.6,25.6,34.6,25.6,34.6,25.6c-0.1,0.1-0.1,0.2-0.1,0.3
			c-0.1,0.6-0.1,1.1-0.2,1.7c-0.1,0.6-0.2,1.1-0.6,1.5c-0.2,0.2-0.4,0.5-0.4,0.8c0,0,0,0.1-0.1,0.1c-0.2,0.2-0.2,0.5-0.2,0.8
			c0,0.2,0.1,0.2,0.3,0.2c0.9-0.3,1.7-0.5,2.6-0.8c0.2-0.1,0.4-0.2,0.6-0.3c0.2-0.1,0.2-0.1,0.1-0.3c-0.2-0.3-0.4-0.7-0.5-1.1
			c-0.4-0.9-0.8-1.7-1.2-2.6C34.8,25.8,34.7,25.7,34.6,25.6z M16.3,22.8c0.2-0.2,0.3-0.4,0.5-0.6c0.2-0.3,0.3-0.6,0.5-0.8
			c0.1-0.2,0.2-0.3,0.1-0.5c0,0,0-0.1,0-0.2c0-0.4,0-0.8,0-1.1c0-0.2-0.1-0.3-0.3-0.2c-0.8,0.2-1.6,0.5-2.5,0.7
			C15.1,20.9,15.7,21.8,16.3,22.8z M34.3,22.6c0.1-0.1,0.2-0.2,0.2-0.2c0.4-0.7,0.9-1.5,1.3-2.2c0.1-0.1,0-0.2-0.1-0.2
			c-0.2-0.1-0.4-0.1-0.6-0.2c-0.6-0.2-1.1-0.4-1.7-0.5c-0.2-0.1-0.3,0-0.3,0.2c0,0.3,0,0.6,0,1c0,0.1,0,0.3,0,0.4
			c-0.1,0.2,0,0.2,0.1,0.3c0.2,0.3,0.4,0.7,0.7,1C34.1,22.2,34.2,22.4,34.3,22.6z M27.5,16.8C27.5,16.8,27.6,16.8,27.5,16.8
			c0-0.1-0.1-0.2-0.2-0.3c-0.6-0.4-1.1-0.8-1.7-1.2c-0.1-0.1-0.3,0-0.4,0c-0.7,0.3-1.3,0.9-1.8,1.4c0,0,0,0,0,0c0.7,0,1.4-0.1,2-0.1
			C26.2,16.6,26.9,16.6,27.5,16.8z M23.8,34.2C23.8,34.2,23.8,34.3,23.8,34.2c0.4,0.4,0.9,0.8,1.3,1.1c0.1,0,0.2,0.1,0.3,0
			c0.6-0.2,0.9-0.7,1.4-1.1C25.7,34.2,24.8,34.2,23.8,34.2z M19.3,18.7C19.3,18.7,19.3,18.7,19.3,18.7c-0.4,0-0.7,0.1-1,0.1
			c0,0-0.1,0.1-0.1,0.1c0,0.2,0,0.4,0,0.7C18.6,19.3,19,19,19.3,18.7z M31.2,18.6C31.2,18.6,31.2,18.7,31.2,18.6
			c0.3,0.4,0.6,0.7,1,1c0-0.3,0-0.5,0-0.7c0,0-0.1-0.1-0.1-0.1C31.8,18.7,31.5,18.7,31.2,18.6z"/>
		<path d="M25,48.8c-0.7-0.2-1.4-0.4-1.9-0.9c-0.3-0.3-0.6-0.6-0.9-0.9c-0.1-0.1-0.1-0.1-0.1-0.2c2.1,1.7,4.2,1.4,6.1-0.3
			c0.1,0.5-1.7,2-2.6,2.4C25.3,48.8,25.2,48.8,25,48.8z"/>
		<path d="M9.9,43.4c-0.5-0.1-1-0.1-1.5-0.3c-0.6-0.2-1-0.7-1.3-1.3c-0.1-0.2,0-0.4,0.3-0.5c0.2,0,0.4,0,0.5,0.1
			c0.2,0.1,0.3,0.2,0.4,0.4c0.5,0.6,1.1,0.8,1.9,0.7c0.4-0.1,0.7-0.2,1.1-0.3c0.2,0,0.4-0.1,0.5-0.1c0.2,0,0.4,0.1,0.5,0.3
			c0.1,0.2,0,0.4-0.2,0.4c-0.3,0.2-0.5,0.3-0.8,0.4C10.8,43.3,10.4,43.3,9.9,43.4z"/>
		<path d="M44.8,37.6c-0.1,0.5-0.2,1-0.4,1.5c-0.1,0.3-0.3,0.4-0.6,0.3c-0.1,0-0.2-0.1-0.2-0.3c0-0.2,0.1-0.4,0.1-0.6
			c0.3-0.8,0-1.5-0.3-2.2c-0.2-0.5-0.7-0.7-1.1-0.9c-0.1-0.1-0.3-0.2-0.4-0.3c0,0-0.1-0.2,0-0.2c0,0,0.1-0.1,0.2-0.1
			C43.5,34.9,44.7,36.2,44.8,37.6C44.7,37.5,44.7,37.5,44.8,37.6z"/>
		<path d="M13.5,6.8C13.7,6.9,13.9,6.9,14,7c0.5,0.4,1.1,0.6,1.7,0.8c0.3,0.1,0.7,0.2,1,0.4c0.3,0.1,0.4,0.3,0.5,0.6
			c0.1,0.2,0,0.3-0.2,0.3c-0.1,0-0.2,0-0.3,0c-0.6-0.2-1.2-0.3-1.7-0.5c-0.6-0.2-1.1-0.5-1.6-1c-0.1,0-0.1-0.1-0.1-0.2
			c-0.1-0.1-0.2-0.3-0.1-0.4C13.2,7,13.4,6.9,13.5,6.8z"/>
		<path d="M7.3,10c0,0.1,0,0.2-0.1,0.3c-0.2,0.4-0.2,0.9,0,1.3c0.2,0.6,0.5,1.1,0.8,1.6c0.2,0.4,0.5,0.6,0.9,0.8
			c0.2,0.1,0.4,0.2,0.6,0.4c0.1,0.1,0.1,0.2,0.1,0.3c0,0.1-0.2,0.1-0.3,0.1c-0.7-0.1-1.3-0.3-1.7-0.8c-0.7-0.7-1.1-1.6-0.9-2.6
			c0.1-0.4,0.3-0.9,0.4-1.3C7.1,10,7.2,10,7.3,10C7.2,9.9,7.3,10,7.3,10z"/>
		<path d="M43.9,13.1c0.1-0.4,0.2-0.8,0.3-1.3c0-0.2,0-0.4,0-0.5c0-0.3,0-0.6,0-0.9c0-0.4-0.1-0.8-0.3-1.2c-0.2-0.3-0.3-0.6-0.5-0.9
			c0-0.1-0.1-0.2-0.1-0.3c0.8,0.6,1.5,1.3,1.6,2.3C45.1,11.4,44.6,12.3,43.9,13.1z"/>
		<path d="M26.8,2.3c-0.2-0.1-0.5-0.2-0.7-0.3c-0.6-0.2-1.3-0.2-1.9,0c-0.2,0.1-0.3,0.2-0.5,0.3c0,0,0,0-0.1,0
			c0.1-0.1,0.2-0.3,0.3-0.4c0.2-0.3,0.4-0.5,0.7-0.6c0.3-0.1,0.7-0.1,1,0C26.1,1.5,26.5,1.8,26.8,2.3C26.8,2.2,26.8,2.2,26.8,2.3z"
			/>
		<path class="st0" d="M17.4,25.3c0-2.1,0.7-4,2.2-5.6c0.9-0.9,2.1-1.4,3.4-1.8c2.5-0.6,4.9-0.3,7,1c2.8,1.7,4.1,5.1,3.1,8.3
			c-0.8,2.6-2.4,4.4-4.9,5.4c-4.6,1.8-9.2-1.4-10.4-5C17.5,26.9,17.4,26.1,17.4,25.3z"/>
		<path class="st1" d="M40,40.6c-1.3,0-2.1-0.9-2.1-2.3c0-1.1,1-2.1,2.1-2c1.2,0,2.2,1.1,2.2,2.3C42.3,39.6,41.5,40.7,40,40.6z"/>
		<path class="st0" d="M24.9,44.9c-1.3,0-2.1-0.9-2.1-2.3c0-1.1,1-2.1,2.1-2c1.2,0,2.2,1.1,2.2,2.3C27.2,43.9,26.4,45,24.9,44.9z"/>
		<path class="st2" d="M37.4,10.3c0-1.4,0.7-2.2,2-2.3c0.5,0,1,0,1.4,0.3c0.2,0.1,0.3,0.2,0.3,0.4c0,0.1,0.1,0.3,0.2,0.4
			c0.2,0.2,0.2,0.5,0.2,0.8c-0.1,0.8-0.4,1.4-1.1,1.9c-0.3,0.2-0.5,0.3-0.8,0.5c-0.1,0-0.2,0.1-0.2,0.1c-0.4-0.1-0.9-0.3-1.2-0.6
			C37.6,11.3,37.4,10.9,37.4,10.3z"/>
		<path class="st3" d="M10.4,40.1C10,40.2,9.5,40,9,39.7c-0.1-0.1-0.3-0.1-0.4-0.2c-0.1-0.1-0.2-0.2-0.2-0.3
			c-0.3-0.6-0.2-1.1,0.1-1.7c0.4-0.9,1.2-1.3,2.2-1.2c1,0.1,1.7,1.2,1.6,2.2C12.1,39.6,11.5,40.1,10.4,40.1z"/>
		<path class="st3" d="M12.5,8.4c-0.3,0.4,0,0.7,0,1c0.1,0.2,0.2,0.5,0.2,0.7c0.1,0.5-0.1,0.9-0.5,1.2c-0.3,0.2-0.6,0.5-0.9,0.7
			c-0.4,0.3-0.9,0.2-1.3-0.1C9.2,11.2,9,10,9.6,9c0.3-0.5,0.8-0.8,1.3-0.9C11.5,8,12,8.2,12.5,8.4z"/>
		<path d="M28,7.7c0,0.4-0.3,0.6-0.6,0.4C27.2,8.1,27.1,8,27,8c-0.8-0.6-1.7-0.7-2.7-0.4C24,7.6,23.8,7.8,23.6,8
			c-0.2,0.3-0.4,0.5-0.6,0.8c-0.2,0.2-0.4,0.4-0.8,0.3C22.1,9.1,22,9,22,8.7c0-0.1,0.1-0.2,0.1-0.3c0.4-0.6,0.8-1.2,1.4-1.6
			c0.7-0.5,1.5-0.6,2.3-0.4c0.6,0.1,1.2,0.4,1.7,0.7C27.8,7.3,28,7.5,28,7.7z"/>
		<path d="M23,43.8c0.2,0.6,0.7,1,1.2,1.4c0.4,0.3,0.9,0.3,1.4,0.1c0.5-0.1,0.9-0.4,1.2-0.7c0.4-0.4,0.5-1,0.5-1.6
			c0-0.1,0-0.3-0.1-0.4c0-0.3-0.1-0.5-0.4-0.7c-0.1-0.1-0.1-0.2-0.2-0.3c0.9,0.4,1.4,1.5,1,2.7c-0.5,1.2-1.8,1.9-3.1,1.5
			C23.6,45.5,22.8,44.4,23,43.8z"/>
		<path d="M25,39.6c1,0,1.7,0.3,2.3,0.9c0.1,0.1,0.2,0.2,0.2,0.4c0,0.1-0.1,0.3-0.2,0.4c-0.1,0.1-0.2,0-0.3-0.1
			c-0.7-0.7-1.7-1-2.6-0.6c-0.2,0.1-0.4,0.3-0.7,0.5c-0.1,0.1-0.4,0.2-0.4,0.2c-0.2-0.1-0.1-0.4,0-0.5C23.8,40.1,24.3,39.6,25,39.6z
			"/>
		<path d="M38.7,25.1c0,0,0,0.1,0,0.1c0,0.2-0.1,0.3-0.3,0.4c-0.2,0-0.4-0.1-0.4-0.3c-0.1-0.2-0.2-0.5-0.2-0.8c0-0.8-0.3-1.3-1-1.7
			c-0.2-0.1-0.4-0.3-0.6-0.5c-0.1-0.1-0.2-0.3,0-0.5c0.2-0.1,0.3-0.1,0.4,0.1c0.1,0.1,0.3,0.3,0.4,0.3c1.1,0.5,1.6,1.2,1.7,2.4
			c0,0.1,0,0.2,0,0.3C38.7,24.9,38.7,25,38.7,25.1z"/>
		<path d="M16.7,30c-0.3,0.1-0.5,0-0.7-0.2c-0.5-0.5-0.9-1.7-0.6-2.4c0,0,0,0,0,0c0.1-0.1,0.2-0.2,0.3-0.3c0.1,0.1,0.1,0.2,0.2,0.3
			c0,0.1,0,0.1,0,0.2c0,0.7,0.3,1.3,0.6,1.9C16.6,29.6,16.6,29.8,16.7,30z"/>
		<path d="M35.1,27.7c0,0.8-0.3,1.5-0.9,2c-0.1,0.1-0.1,0.1-0.2,0.2c-0.1,0-0.2,0-0.3-0.1c0-0.1,0-0.2,0-0.3c0-0.1,0.1-0.2,0.2-0.3
			c0.3-0.5,0.6-1.1,0.7-1.7c0,0,0-0.1,0.1-0.1c0.1-0.1,0.2-0.1,0.3-0.2c0.1,0.1,0.1,0.2,0.2,0.3C35.1,27.6,35.1,27.7,35.1,27.7z"/>
	</g>
</g>
<path class="st4" d="M19.4,26c0,0-0.9-5,2.6-5.2"/>
<circle class="st5" cx="22.9" cy="23.7" r="0.9"/>
<circle class="st5" cx="29.4" cy="22.5" r="0.3"/>
</svg>
